<svg width="16" height="16" viewBox="0 0 16 16" fill="none" xmlns="http://www.w3.org/2000/svg">
<path fill-rule="evenodd" clip-rule="evenodd" d="M0.297509 16H0.30501H0.372012L4.75415 14.9585C4.80815 14.9455 4.85615 14.9174 4.89415 14.8789L5.01025 14.7628C5.06081 14.7353 5.10256 14.6936 5.13008 14.643L14.0295 5.74545C14.0582 5.72538 14.0832 5.70039 14.1032 5.6717L15.516 4.25926C15.815 3.95932 16 3.54471 16 3.08703C16 2.62936 15.815 2.21475 15.516 1.91481L14.0729 0.46969C13.7684 0.178763 13.3559 0 12.9019 0C12.4479 0 12.0354 0.178763 11.7314 0.469189L1.12654 11.1068C1.08703 11.1404 1.05653 11.1839 1.03803 11.2355L0.00800025 15.6335C0.00300009 15.6555 0 15.6785 0 15.7021C0 15.8663 0.133004 16 0.297509 16ZM4.88087 14.0907L13.4467 5.50527L10.4939 2.53281L1.92743 11.1225L4.88087 14.0907ZM1.56748 11.5987L0.713522 15.3015L4.40593 14.4475L1.56748 11.5987ZM15.1115 3.83664L13.866 5.08495L10.9133 2.11218L12.1479 0.874284C12.3434 0.686508 12.6089 0.570838 12.9014 0.570838C13.1939 0.570838 13.4594 0.686508 13.6544 0.873783L15.1115 2.32842C15.304 2.5217 15.423 2.78809 15.423 3.08253C15.423 3.37696 15.304 3.64335 15.1115 3.83664Z" fill="black"/>
</svg>
